<svg width="260" height="32" viewBox="0 0 260 32" fill="none" xmlns="http://www.w3.org/2000/svg">
<path d="M18.6691 24.5836V32H11.9904V24.5836H2.75105C0.778599 24.5836 0 23.2849 0 21.9691C0 20.6533 0.761296 19.3204 2.75105 19.3204H27.9084C29.8982 19.3204 30.6595 20.6875 30.6595 21.9691C30.6595 23.2507 29.8809 24.5836 27.9084 24.5836H18.6691ZM29.9155 9.83635C29.9155 13.6812 27.2336 17.116 22.4409 17.116H8.25314C3.44314 17.116 0.778598 13.6471 0.778598 9.80217V9.37496C0.778598 5.53007 3.42583 2.06113 8.25314 2.06113H22.4409C27.2509 2.06113 29.9155 5.53007 29.9155 9.37496V9.83635ZM23.133 9.40914C23.133 8.24713 22.216 7.23891 20.4166 7.23891H10.2948C8.49537 7.23891 7.57836 8.24713 7.57836 9.40914V9.80217C7.57836 10.9642 8.49537 11.9382 10.2948 11.9382H20.4166C22.1814 11.9382 23.133 10.9642 23.133 9.80217V9.40914Z" fill="#00A8B0"/>
<path d="M40.2279 23.7805C40.2279 24.9083 40.5912 25.1646 41.7332 25.1646H51.4051C53.3948 25.1646 54.1907 26.5317 54.1907 27.8133C54.1907 29.095 53.3775 30.462 51.4051 30.462H39.3109C35.2102 30.462 33.6357 29.0095 33.6357 24.9596V19.0641C33.6357 15.0141 35.2102 13.63 39.3109 13.63H45.1763V8.93066C45.1763 8.50345 45.0379 8.02497 44.2939 8.02497H36.7501C34.7777 8.02497 33.9645 6.6579 33.9645 5.34209C33.9645 4.02629 34.7431 2.62504 36.7501 2.62504H46.0241C50.54 2.62504 51.7511 3.88958 51.7511 7.58067V18.9103H41.7332C40.5912 18.9103 40.2279 19.1666 40.2279 20.2944V23.7634V23.7805ZM55.9902 31.8291V4.65856C55.9902 2.55669 57.5301 1.46303 59.2603 1.46303C60.9905 1.46303 62.5304 2.55669 62.5304 4.65856V31.8462H55.9729L55.9902 31.8291Z" fill="#00A8B0"/>
<path d="M74.2781 6.40158C73.6552 6.40158 73.4649 6.55538 73.4649 7.08512V7.56359C73.4649 8.17877 73.6552 8.28131 74.2781 8.28131H92.6184C94.2967 8.28131 94.9196 9.44332 94.9196 10.5541C94.9196 11.6648 94.2621 12.7243 92.6184 12.7243H84.1576V14.5698H93.6219C95.4906 14.5698 96.1826 15.8002 96.1826 16.9964C96.1826 18.1926 95.4559 19.3888 93.6219 19.3888H68.0666C66.2326 19.3888 65.5059 18.2268 65.5059 16.9964C65.5059 15.766 66.1979 14.5698 68.0666 14.5698H77.5309V12.7243H71.181C67.7032 12.7243 66.8554 11.887 66.8554 8.60599V6.0769C66.8554 2.81302 67.7032 1.90733 71.181 1.90733H92.5146C94.2102 1.90733 94.8158 3.03517 94.8158 4.14591C94.8158 5.30793 94.1929 6.41867 92.5146 6.41867H74.2608L74.2781 6.40158ZM89.1926 20.9267C93.3278 20.9267 95.2829 23.3533 95.2829 26.4292C95.2829 29.5051 93.3105 31.9317 89.1926 31.9317H72.5478C68.4126 31.9317 66.4575 29.5051 66.4575 26.4292C66.4575 23.3533 68.4299 20.9267 72.5478 20.9267H89.1926ZM87.2201 27.5228C88.2928 27.5228 88.6216 27.0102 88.6216 26.4292C88.6216 25.8482 88.2928 25.3355 87.2201 25.3355H74.503C73.4303 25.3355 73.1015 25.8482 73.1015 26.4292C73.1015 27.0102 73.4303 27.5228 74.503 27.5228H87.2201Z" fill="#00A8B0"/>
<path d="M103.882 30.3766C99.9201 30.3766 99.0723 29.2488 99.0723 25.5235V5.70095C99.0723 3.49654 100.422 2.55668 102.256 2.55668C104.09 2.55668 105.336 3.53072 105.336 5.70095V24.1393C105.336 24.8912 105.491 24.9767 106.253 24.9767H111.53C113.658 24.9767 114.315 26.3096 114.315 27.6937C114.315 29.0779 113.623 30.3766 111.53 30.3766H103.9H103.882ZM115.319 17.4919H111.91C109.938 17.4919 109.159 16.0394 109.159 14.7065C109.159 13.3736 109.921 11.9211 111.91 11.9211H115.319V4.18008C115.319 2.36871 116.703 1.42885 118.208 1.42885C119.714 1.42885 121.15 2.40289 121.15 4.18008V31.8462H115.319V17.509V17.4919ZM122.724 4.19717C122.724 2.3858 124.126 1.44594 125.648 1.44594C127.171 1.44594 128.59 2.41998 128.59 4.19717V31.8462H122.724V4.19717Z" fill="#00A8B0"/>
<path d="M149.699 14.5869V15.8515H159.371C161.101 15.8515 161.724 16.9793 161.724 18.09C161.724 19.2521 161.066 20.3286 159.371 20.3286H133.418C131.722 20.3286 131.064 19.2691 131.064 18.09C131.064 16.9964 131.687 15.8515 133.418 15.8515H143.089V14.5869H140.079C135.269 14.5869 133.193 12.4167 133.193 9.22116C133.193 8.89648 133.262 8.53763 133.383 8.21295C132.137 7.9908 131.41 7.11929 131.41 5.9231C131.41 4.55603 132.328 3.68452 133.937 3.68452H142.847C143.038 1.83897 144.387 0.933289 146.394 0.933289C148.401 0.933289 149.734 1.87315 149.907 3.68452H158.817C160.426 3.68452 161.343 4.55603 161.343 5.9231C161.343 7.11929 160.582 8.02497 159.336 8.21295C159.492 8.53763 159.561 8.89648 159.561 9.22116C159.561 12.4338 157.502 14.5869 152.675 14.5869H149.699ZM136.653 31.8291C132.95 31.8291 132.431 30.9234 132.431 27.4032V25.9507C132.431 22.4305 132.95 21.5248 136.653 21.5248H156.118C159.821 21.5248 160.34 22.4305 160.34 25.9507V31.8462H136.653V31.8291ZM139.075 26.976C139.075 27.4887 139.214 27.6595 139.698 27.6595H153.696V26.2925C153.696 25.8311 153.54 25.6773 153.004 25.6773H139.698C139.214 25.6773 139.075 25.8311 139.075 26.2925V26.976ZM141.394 7.81991C140.287 7.81991 139.716 8.29839 139.716 9.08446C139.716 9.87052 140.2 10.3832 141.325 10.3832H151.412C152.519 10.3832 152.986 9.83635 152.986 9.08446C152.986 8.33257 152.467 7.81991 151.343 7.81991H141.377H141.394Z" fill="#00A8B0"/>
<path d="M170.132 8.09333V5.56424C170.132 3.49655 171.672 2.41998 173.368 2.41998C175.063 2.41998 176.603 3.58199 176.603 5.56424V8.05915C176.603 10.3832 176.465 12.5192 176.205 14.5015C181.742 16.4496 184.458 20.7729 183.905 30.0007H177.555C178.143 25.1475 177.295 21.9349 174.959 20.3628C173.558 24.7887 171.188 27.8988 167.952 29.6247C166.274 30.4962 164.319 30.3766 163.436 29.2317C162.554 28.2235 162.415 26.3779 163.921 25.3526C168.696 22.1229 170.115 16.9964 170.115 8.11041L170.132 8.09333ZM187.175 16.2445H183.022C181.05 16.2445 180.271 14.792 180.271 13.4591C180.271 12.1262 181.033 10.6737 183.022 10.6737H187.175V4.5902C187.175 2.52251 188.715 1.44594 190.41 1.44594C192.106 1.44594 193.68 2.5396 193.68 4.5902V31.8291H187.158V16.2274L187.175 16.2445Z" fill="#00A8B0"/>
<path d="M202.28 30.445C198.473 30.445 197.521 29.1462 197.521 25.5918V5.71804C197.521 3.44528 198.888 2.52251 200.792 2.52251C202.695 2.52251 203.941 3.49655 203.941 5.71804V10.6737H209.841V5.71804C209.841 3.44528 211.156 2.52251 213.024 2.52251C214.893 2.52251 216.208 3.49655 216.208 5.71804V30.445H202.28ZM209.841 25.1134V15.954H203.941V24.276C203.941 25.0279 204.096 25.1134 204.858 25.1134H209.841ZM219.807 31.8462V4.65856C219.807 2.55669 221.347 1.46303 223.077 1.46303C224.807 1.46303 226.347 2.55669 226.347 4.65856V31.8462H219.789H219.807Z" fill="#00A8B0"/>
<path d="M257.18 25.7286C259.204 25.7286 260 27.1469 260 28.4798C260 29.8127 259.187 31.1968 257.18 31.1968H232.144C230.154 31.1968 229.323 29.8298 229.323 28.4798C229.323 27.1298 230.102 25.7286 232.144 25.7286H257.18ZM247.508 8.31548C253.045 8.45219 258.72 12.2287 259.343 20.4824H252.699C252.11 16.0736 248.857 13.4249 244.93 13.5616C241.954 17.6116 237.265 20.397 232.974 20.4824C231.365 20.5166 230.033 19.5767 229.86 17.9875C229.704 16.4325 230.552 15.1679 232.213 14.8091C236.538 13.8692 240.5 10.2465 241.193 4.81236C241.452 2.77884 243.061 1.77063 244.895 1.90733C246.798 2.06113 248.044 3.29149 247.975 5.3421C247.94 6.35032 247.785 7.34144 247.508 8.31548Z" fill="#00A8B0"/>
</svg>
